<svg width="371" height="139" viewBox="0 0 371 139" fill="none" xmlns="http://www.w3.org/2000/svg">
<path d="M260.168 131.28C253.085 131.28 246.984 129.957 241.864 127.312C236.744 124.667 232.776 120.912 229.96 116.048C227.229 111.184 225.864 105.424 225.864 98.768C225.864 92.2827 227.187 86.608 229.832 81.744C232.563 76.88 236.275 73.0827 240.968 70.352C245.747 67.536 251.165 66.128 257.224 66.128C261.661 66.128 265.629 66.8533 269.128 68.304C272.712 69.7547 275.741 71.8453 278.216 74.576C280.776 77.3067 282.696 80.6347 283.976 84.56C285.341 88.4 286.024 92.752 286.024 97.616C286.024 99.152 285.469 100.347 284.36 101.2C283.336 101.968 281.843 102.352 279.88 102.352H238.792V93.136H274.76L272.712 95.056C272.712 91.1307 272.115 87.8453 270.92 85.2C269.811 82.5547 268.147 80.5493 265.928 79.184C263.795 77.7333 261.107 77.008 257.864 77.008C254.28 77.008 251.208 77.8613 248.648 79.568C246.173 81.1893 244.253 83.536 242.888 86.608C241.608 89.5947 240.968 93.1787 240.968 97.36V98.256C240.968 105.253 242.589 110.501 245.832 114C249.16 117.413 254.024 119.12 260.424 119.12C262.643 119.12 265.117 118.864 267.848 118.352C270.664 117.755 273.309 116.773 275.784 115.408C277.576 114.384 279.155 113.957 280.52 114.128C281.885 114.213 282.952 114.683 283.72 115.536C284.573 116.389 285.085 117.456 285.256 118.736C285.427 119.931 285.171 121.168 284.488 122.448C283.891 123.728 282.824 124.837 281.288 125.776C278.301 127.653 274.845 129.061 270.92 130C267.08 130.853 263.496 131.28 260.168 131.28ZM306.631 131.024C304.071 131.024 302.108 130.341 300.743 128.976C299.378 127.525 298.695 125.477 298.695 122.832V74.448C298.695 71.8027 299.378 69.7973 300.743 68.432C302.108 67.0667 304.028 66.384 306.503 66.384C308.978 66.384 310.898 67.0667 312.263 68.432C313.628 69.7973 314.311 71.8027 314.311 74.448V83.152L312.903 79.952C314.78 75.4293 317.682 72.016 321.607 69.712C325.618 67.3227 330.14 66.128 335.175 66.128C340.21 66.128 344.348 67.0667 347.591 68.944C350.834 70.8213 353.266 73.68 354.887 77.52C356.508 81.2747 357.319 86.0533 357.319 91.856V122.832C357.319 125.477 356.636 127.525 355.271 128.976C353.906 130.341 351.943 131.024 349.383 131.024C346.823 131.024 344.818 130.341 343.367 128.976C342.002 127.525 341.319 125.477 341.319 122.832V92.624C341.319 87.76 340.38 84.2187 338.503 82C336.711 79.7813 333.895 78.672 330.055 78.672C325.362 78.672 321.607 80.1653 318.791 83.152C316.06 86.0533 314.695 89.936 314.695 94.8V122.832C314.695 128.293 312.007 131.024 306.631 131.024Z" fill="#F9CE07"/>
<path d="M10.752 131.024C8.704 131.024 7.04 130.555 5.76 129.616C4.56533 128.677 3.84 127.44 3.584 125.904C3.328 124.283 3.62667 122.491 4.48 120.528L38.272 45.648C39.3813 43.1733 40.704 41.424 42.24 40.4C43.8613 39.2907 45.696 38.736 47.744 38.736C49.7067 38.736 51.456 39.2907 52.992 40.4C54.6133 41.424 55.9787 43.1733 57.088 45.648L91.008 120.528C91.9467 122.491 92.288 124.283 92.032 125.904C91.776 127.525 91.0507 128.805 89.856 129.744C88.6613 130.597 87.0827 131.024 85.12 131.024C82.7307 131.024 80.8533 130.469 79.488 129.36C78.208 128.165 77.056 126.373 76.032 123.984L67.712 104.656L74.624 109.136H20.608L27.52 104.656L19.328 123.984C18.2187 126.459 17.0667 128.251 15.872 129.36C14.6773 130.469 12.9707 131.024 10.752 131.024ZM47.488 57.552L29.568 100.176L26.24 96.08H68.992L65.792 100.176L47.744 57.552H47.488ZM124.946 131.28C117.863 131.28 112.53 129.275 108.946 125.264C105.362 121.168 103.57 115.195 103.57 107.344V46.8C103.57 44.1547 104.253 42.1493 105.618 40.784C106.983 39.4187 108.946 38.736 111.506 38.736C114.066 38.736 116.029 39.4187 117.394 40.784C118.845 42.1493 119.57 44.1547 119.57 46.8V106.576C119.57 110.501 120.381 113.403 122.002 115.28C123.709 117.157 126.098 118.096 129.17 118.096C129.853 118.096 130.493 118.096 131.09 118.096C131.687 118.011 132.285 117.925 132.882 117.84C134.077 117.669 134.887 118.011 135.314 118.864C135.741 119.632 135.954 121.253 135.954 123.728C135.954 125.861 135.527 127.525 134.674 128.72C133.821 129.915 132.413 130.64 130.45 130.896C129.597 130.981 128.701 131.067 127.762 131.152C126.823 131.237 125.885 131.28 124.946 131.28Z" fill="#F9CE07"/>
<path d="M208 53C208 64.0457 198.374 73 186.5 73C174.626 73 165 64.0457 165 53C165 41.9543 174.626 33 186.5 33C198.374 33 208 41.9543 208 53Z" fill="#F9CE07"/>
<path d="M210 104.43C204.6 167.017 199.926 110.801 187.5 110.801C175.074 110.801 170.4 167.017 165 104.43C165 88.1761 175.074 75 187.5 75C199.926 75 210 88.1761 210 104.43Z" fill="#F9CE07"/>
<path d="M205.774 120.499C206.9 129.46 206.4 136.205 201.073 137.042C195.747 137.879 195.215 132.616 194.089 123.656C192.963 114.696 188.762 106.628 194.089 105.791C199.416 104.954 204.647 111.539 205.774 120.499Z" fill="#F9CE07"/>
<path d="M169.207 120.499C168.081 129.46 168.58 136.205 173.907 137.042C179.234 137.879 179.765 132.616 180.892 123.656C182.018 114.696 186.219 106.628 180.892 105.791C175.565 104.954 170.334 111.539 169.207 120.499Z" fill="#F9CE07"/>
</svg>
